<?xml version="1.0" encoding="UTF-8" standalone="no"?>
<!DOCTYPE svg PUBLIC "-//W3C//DTD SVG 1.1//EN" "http://www.w3.org/Graphics/SVG/1.1/DTD/svg11.dtd">
<svg width="100%" height="100%" viewBox="0 0 1024 1024" version="1.1" xmlns="http://www.w3.org/2000/svg" xmlns:xlink="http://www.w3.org/1999/xlink" xml:space="preserve" style="fill-rule:evenodd;clip-rule:evenodd;stroke-linecap:round;stroke-linejoin:round;stroke-miterlimit:1.5;">
    <g transform="matrix(1,0,0,0.999221,-1.45519e-14,0.398623)">
        <path d="M1024,256C1024,114.71 909.38,0 768.199,0C768.199,0 597.4,34.915 512,34.915C426.6,34.915 255.801,0 255.801,0C114.62,0 0,114.71 0,256C0,256 34.888,426.667 34.888,512C34.888,597.333 0,768 0,768C0,909.29 114.62,1024 255.801,1024C255.801,1024 426.6,989.085 512,989.085C597.4,989.085 768.199,1024 768.199,1024C909.38,1024 1024,909.29 1024,768C1024,768 989.112,597.333 989.112,512C989.112,426.667 1024,256 1024,256Z" style="fill:rgb(221,221,221);"/>
    </g>
    <g transform="matrix(0.840347,0,0,0.839693,81.7424,82.0774)">
        <path d="M1024,256C1024,114.71 909.38,0 768.199,0C768.199,0 597.4,-4.415 512,-4.415C426.6,-4.415 255.801,0 255.801,0C114.62,0 0,114.71 0,256C0,256 -4.412,426.667 -4.412,512C-4.412,597.333 0,768 0,768C0,909.29 114.62,1024 255.801,1024C255.801,1024 426.6,1028.41 512,1028.41C597.4,1028.41 768.199,1024 768.199,1024C909.38,1024 1024,909.29 1024,768C1024,768 1028.41,597.333 1028.41,512C1028.41,426.667 1024,256 1024,256Z" style="fill:rgb(000,000,000);"/>
    </g>
    <g transform="matrix(1.16294,0,0,1.16294,-83.4249,-83.4249)">
        <path d="M512,327.157L512,696.843" style="fill:none;stroke:white;stroke-width:19.11px;"/>
    </g>
    <g transform="matrix(1.16294,0,0,1.16294,-59.3145,-72.7858)">
        <path d="M266.31,607.75C266.31,607.75 285.872,704.638 312.595,756.549C318.873,768.744 320.999,789.381 357.309,800.197C372.34,804.675 384.591,805.234 393.04,803.497C403.314,801.385 415.518,792.483 422.071,786.061C431.876,776.453 453.99,750.705 431.541,696.843C408.681,641.995 353.1,621.652 342.746,560.147C333.108,502.896 384.841,454.3 402.621,404.087C412.604,375.893 403.892,341.891 374.087,330.113C333.365,314.021 239.059,338.331 209.999,372.895C200.76,383.883 198.416,400.776 197.938,414.556C196.442,457.749 213.401,468.643 231.148,504.304C237.076,516.215 245.905,538.315 254.672,560.147C259.319,571.72 262.858,589.109 264.761,599.455C265.888,605.585 266.441,609.242 266.31,607.75Z" style="fill:rgb(221,221,221);"/>
    </g>
    <g transform="matrix(1.51207,0,0,1.34338,-317.333,-122.794)">
        <ellipse cx="466.168" cy="261.935" rx="27.247" ry="50.451" style="fill:rgb(221,221,221);"/>
    </g>
    <g transform="matrix(1.19924,-0.115724,0.102534,1.06255,-279.406,18.7866)">
        <ellipse cx="466.168" cy="261.935" rx="27.247" ry="50.451" style="fill:rgb(221,221,221);"/>
    </g>
    <g transform="matrix(1.0003,-0.22319,0.197751,0.886286,-276.741,135.167)">
        <ellipse cx="466.168" cy="261.935" rx="27.247" ry="50.451" style="fill:rgb(221,221,221);"/>
    </g>
    <g transform="matrix(0.788422,-0.299011,0.26493,0.698558,-243.61,253.538)">
        <ellipse cx="466.168" cy="261.935" rx="27.247" ry="50.451" style="fill:rgb(221,221,221);"/>
    </g>
    <g transform="matrix(0.55453,-0.371432,0.329096,0.491324,-186.969,374.162)">
        <ellipse cx="466.168" cy="261.935" rx="27.247" ry="50.451" style="fill:rgb(221,221,221);"/>
    </g>
    <g transform="matrix(-1.16294,0,0,1.16294,1083.31,-72.7858)">
        <path d="M266.31,607.75C266.31,607.75 285.872,704.638 312.595,756.549C318.873,768.744 320.999,789.381 357.309,800.197C372.34,804.675 384.591,805.234 393.04,803.497C403.314,801.385 415.518,792.483 422.071,786.061C431.876,776.453 453.99,750.705 431.541,696.843C408.681,641.995 353.1,621.652 342.746,560.147C333.108,502.896 384.841,454.3 402.621,404.087C412.604,375.893 403.892,341.891 374.087,330.113C333.365,314.021 239.059,338.331 209.999,372.895C200.76,383.883 198.416,400.776 197.938,414.556C196.442,457.749 213.401,468.643 231.148,504.304C237.076,516.215 245.905,538.315 254.672,560.147C259.319,571.72 262.858,589.109 264.761,599.455C265.888,605.585 266.441,609.242 266.31,607.75Z" style="fill:rgb(221,221,221);"/>
    </g>
    <g transform="matrix(-1.51207,0,0,1.34338,1341.33,-122.794)">
        <ellipse cx="466.168" cy="261.935" rx="27.247" ry="50.451" style="fill:rgb(221,221,221);"/>
    </g>
    <g transform="matrix(-1.19924,-0.115724,-0.102534,1.06255,1303.41,18.7866)">
        <ellipse cx="466.168" cy="261.935" rx="27.247" ry="50.451" style="fill:rgb(221,221,221);"/>
    </g>
    <g transform="matrix(-1.0003,-0.22319,-0.197751,0.886286,1300.74,135.167)">
        <ellipse cx="466.168" cy="261.935" rx="27.247" ry="50.451" style="fill:rgb(221,221,221);"/>
    </g>
    <g transform="matrix(-0.788422,-0.299011,-0.26493,0.698558,1267.61,253.538)">
        <ellipse cx="466.168" cy="261.935" rx="27.247" ry="50.451" style="fill:rgb(221,221,221);"/>
    </g>
    <g transform="matrix(-0.55453,-0.371432,-0.329096,0.491324,1210.97,374.162)">
        <ellipse cx="466.168" cy="261.935" rx="27.247" ry="50.451" style="fill:rgb(221,221,221);"/>
    </g>
    <g transform="matrix(1.16294,0,0,1.16294,-83.4249,-83.4249)">
        <path d="M326.869,512L697.131,512" style="fill:none;stroke:white;stroke-width:19.11px;"/>
    </g>
</svg>
