<svg version="1.1" xmlns="http://www.w3.org/2000/svg" xmlns:xlink="http://www.w3.org/1999/xlink" width="573" height="563"><defs/><g><g transform="translate(-94,-158) scale(1,1)"><rect fill="#ffc1ad" stroke="none" x="424" y="272" width="191" height="95"/></g><g transform="translate(-94,-158) scale(1,1)"><path fill="none" stroke="#000000" d="M 424 272 L 615 272 L 615 367 L 424 367 L 424 272 Z Z" stroke-miterlimit="10"/></g><g transform="translate(-94,-158) scale(1,1)"><rect fill="#d8ffd8" stroke="none" x="120" y="248" width="175" height="119"/></g><g transform="translate(-94,-158) scale(1,1)"><path fill="none" stroke="#000000" d="M 120 248 L 295 248 L 295 367 L 120 367 L 120 248 Z Z" stroke-miterlimit="10"/></g><g transform="translate(-94,-158) scale(1,1)"><rect fill="#d8f2ff" stroke="none" x="104" y="408" width="527" height="215"/></g><g transform="translate(-94,-158) scale(1,1)"><path fill="none" stroke="#000000" d="M 104 408 L 631 408 L 631 623 L 104 623 L 104 408 Z Z" stroke-miterlimit="10"/></g><g transform="translate(-94,-158) scale(1,1)"><rect fill="#49ffe0" stroke="none" x="336" y="312" width="73.18994140625" height="32"/></g><g transform="translate(-94,-158) scale(1,1)"><path fill="none" stroke="#000000" d="M 336 312 L 409.18994140625 312 L 409.18994140625 344 L 336 344 L 336 312 Z Z" stroke-miterlimit="10"/></g><g transform="translate(-94,-158) scale(1,1)"><g><path fill="none" stroke="none"/><text fill="#000000" stroke="none" font-family="Arial" font-size="13px" font-style="normal" font-weight="normal" text-decoration="none" x="355.25634765625" y="334.5">Home</text></g></g><g transform="translate(-94,-158) scale(1,1)"><rect fill="#a3ffa3" stroke="none" x="152" y="296" width="106" height="58"/></g><g transform="translate(-94,-158) scale(1,1)"><path fill="none" stroke="#000000" d="M 152 296 L 258 296 L 258 354 L 152 354 L 152 296 Z Z" stroke-miterlimit="10"/></g><g transform="translate(-94,-158) scale(1,1)"><g><path fill="none" stroke="none"/><text fill="#000000" stroke="none" font-family="Arial" font-size="13px" font-style="normal" font-weight="normal" text-decoration="none" x="171.043212890625" y="318.5">COP tempo</text><text fill="#000000" stroke="none" font-family="Arial" font-size="13px" font-style="normal" font-weight="normal" text-decoration="none" x="194.161376953125" y="331.5">real</text></g></g><g transform="translate(-94,-158) scale(1,1)"><rect fill="#6dceff" stroke="none" x="312" y="440" width="120" height="45"/></g><g transform="translate(-94,-158) scale(1,1)"><path fill="none" stroke="#000000" d="M 312 440 L 432 440 L 432 485 L 312 485 L 312 440 Z Z" stroke-miterlimit="10"/></g><g transform="translate(-94,-158) scale(1,1)"><g><path fill="none" stroke="none"/><text fill="#000000" stroke="none" font-family="Arial" font-size="13px" font-style="normal" font-weight="normal" text-decoration="none" x="346.70458984375" y="462.5">Menu de</text><text fill="#000000" stroke="none" font-family="Arial" font-size="13px" font-style="normal" font-weight="normal" text-decoration="none" x="347.431396484375" y="475.5">Medição</text></g></g><g transform="translate(-94,-158) scale(1,1)"><rect fill="#6dceff" stroke="none" x="544" y="456" width="73.18994140625" height="32"/></g><g transform="translate(-94,-158) scale(1,1)"><path fill="none" stroke="#000000" d="M 544 456 L 617.18994140625 456 L 617.18994140625 488 L 544 488 L 544 456 Z Z" stroke-miterlimit="10"/></g><g transform="translate(-94,-158) scale(1,1)"><g><path fill="none" stroke="none"/><text fill="#000000" stroke="none" font-family="Arial" font-size="13px" font-style="normal" font-weight="normal" text-decoration="none" x="564.341796875" y="478.5">Medir</text></g></g><g transform="translate(-94,-158) scale(1,1)"><rect fill="#6dceff" stroke="none" x="144" y="568" width="73.18994140625" height="32"/></g><g transform="translate(-94,-158) scale(1,1)"><path fill="none" stroke="#000000" d="M 144 568 L 217.18994140625 568 L 217.18994140625 600 L 144 600 L 144 568 Z Z" stroke-miterlimit="10"/></g><g transform="translate(-94,-158) scale(1,1)"><g><path fill="none" stroke="none"/><text fill="#000000" stroke="none" font-family="Arial" font-size="13px" font-style="normal" font-weight="normal" text-decoration="none" x="154.582275390625" y="590.5">Relatório</text></g></g><g transform="translate(-94,-158) scale(1,1)"><path fill="none" stroke="#000000" d="M 336 320 L 258 320" stroke-miterlimit="10"/></g><g transform="translate(-94,-158) scale(1,1)"><path fill="#000000" stroke="none" d="M 268.16267485762415 315.790482243984 L 258 320 L 268.16267485762415 324.209517756016"/></g><g transform="translate(-94,-158) scale(1,1)"><path fill="none" stroke="#000000" d="M 268.16267485762415 315.790482243984 L 258 320 L 268.16267485762415 324.209517756016 L 268.16267485762415 315.790482243984" stroke-miterlimit="10"/></g><g transform="translate(-94,-158) scale(1,1)"><path fill="none" stroke="#000000" d="M 352 344 L 352 440" stroke-miterlimit="10"/></g><g transform="translate(-94,-158) scale(1,1)"><path fill="#000000" stroke="none" d="M 347.790482243984 429.83732514237585 L 352 440 L 356.209517756016 429.83732514237585"/></g><g transform="translate(-94,-158) scale(1,1)"><path fill="none" stroke="#000000" d="M 347.790482243984 429.83732514237585 L 352 440 L 356.209517756016 429.83732514237585 L 347.790482243984 429.83732514237585" stroke-miterlimit="10"/></g><g transform="translate(-94,-158) scale(1,1)"><path fill="none" stroke="#000000" d="M 432 472 L 544 472" stroke-miterlimit="10"/></g><g transform="translate(-94,-158) scale(1,1)"><path fill="#000000" stroke="none" d="M 533.8373251423759 476.209517756016 L 544 472 L 533.8373251423758 467.790482243984"/></g><g transform="translate(-94,-158) scale(1,1)"><path fill="none" stroke="#000000" d="M 533.8373251423759 476.209517756016 L 544 472 L 533.8373251423758 467.790482243984 L 533.8373251423759 476.209517756016" stroke-miterlimit="10"/></g><g transform="translate(-94,-158) scale(1,1)"><path fill="none" stroke="#000000" d="M 579 488 L 579 592 M 579 592 A 8 8 0 0 1 571 600 L 217 600" stroke-miterlimit="10"/></g><g transform="translate(-94,-158) scale(1,1)"><path fill="#000000" stroke="none" d="M 227.16267485762415 595.790482243984 L 217 600 L 227.16267485762415 604.209517756016"/></g><g transform="translate(-94,-158) scale(1,1)"><path fill="none" stroke="#000000" d="M 227.16267485762415 595.790482243984 L 217 600 L 227.16267485762415 604.209517756016 L 227.16267485762415 595.790482243984" stroke-miterlimit="10"/></g><g transform="translate(-94,-158) scale(1,1)"><path fill="none" stroke="#000000" d="M 200 296 L 200 272 M 200 272 A 8 8 0 0 1 208 264 L 344 264 M 344 264 A 8 8 0 0 1 352 272 L 352 312" stroke-miterlimit="10"/></g><g transform="translate(-94,-158) scale(1,1)"><path fill="#000000" stroke="none" d="M 347.790482243984 301.83732514237585 L 352 312 L 356.209517756016 301.83732514237585"/></g><g transform="translate(-94,-158) scale(1,1)"><path fill="none" stroke="#000000" d="M 347.790482243984 301.83732514237585 L 352 312 L 356.209517756016 301.83732514237585 L 347.790482243984 301.83732514237585" stroke-miterlimit="10"/></g><g transform="translate(-94,-158) scale(1,1)"><path fill="none" stroke="#000000" d="M 392 440 L 392 344" stroke-miterlimit="10"/></g><g transform="translate(-94,-158) scale(1,1)"><path fill="#000000" stroke="none" d="M 396.209517756016 354.16267485762415 L 392 344 L 387.790482243984 354.16267485762415"/></g><g transform="translate(-94,-158) scale(1,1)"><path fill="none" stroke="#000000" d="M 396.209517756016 354.16267485762415 L 392 344 L 387.790482243984 354.16267485762415 L 396.209517756016 354.16267485762415" stroke-miterlimit="10"/></g><g transform="translate(-94,-158) scale(1,1)"><path fill="none" stroke="#000000" d="M 184 600 L 184 640 M 184 640 A 8 8 0 0 0 192 648 L 648 648 M 648 648 A 8 8 0 0 0 656 640 L 656 248 M 656 248 A 8 8 0 0 0 648 240 L 392 240 M 392 240 A 8 8 0 0 0 384 248 L 384 312" stroke-miterlimit="10"/></g><g transform="translate(-94,-158) scale(1,1)"><path fill="#000000" stroke="none" d="M 379.790482243984 301.83732514237585 L 384 312 L 388.209517756016 301.83732514237585"/></g><g transform="translate(-94,-158) scale(1,1)"><path fill="none" stroke="#000000" d="M 379.790482243984 301.83732514237585 L 384 312 L 388.209517756016 301.83732514237585 L 379.790482243984 301.83732514237585" stroke-miterlimit="10"/></g><g transform="translate(-94,-158) scale(1,1)"><rect fill="#ffff91" stroke="none" x="336" y="184" width="73.18994140625" height="32"/></g><g transform="translate(-94,-158) scale(1,1)"><path fill="none" stroke="#000000" d="M 336 184 L 409.18994140625 184 L 409.18994140625 216 L 336 216 L 336 184 Z Z" stroke-miterlimit="10"/></g><g transform="translate(-94,-158) scale(1,1)"><g><path fill="none" stroke="none"/><text fill="#000000" stroke="none" font-family="Arial" font-size="13px" font-style="normal" font-weight="normal" text-decoration="none" x="355.25" y="206.5">Sobre</text></g></g><g transform="translate(-94,-158) scale(1,1)"><path fill="none" stroke="#000000" d="M 372 312 L 372 216" stroke-miterlimit="10"/></g><g transform="translate(-94,-158) scale(1,1)"><path fill="#000000" stroke="none" d="M 376.209517756016 226.16267485762415 L 372 216 L 367.790482243984 226.16267485762415"/></g><g transform="translate(-94,-158) scale(1,1)"><path fill="none" stroke="#000000" d="M 376.209517756016 226.16267485762415 L 372 216 L 367.790482243984 226.16267485762415 L 376.209517756016 226.16267485762415" stroke-miterlimit="10"/></g><g transform="translate(-94,-158) scale(1,1)"><path fill="none" stroke="#000000" d="M 372 216 L 372 312" stroke-miterlimit="10"/></g><g transform="translate(-94,-158) scale(1,1)"><path fill="#000000" stroke="none" d="M 367.790482243984 301.83732514237585 L 372 312 L 376.209517756016 301.83732514237585"/></g><g transform="translate(-94,-158) scale(1,1)"><path fill="none" stroke="#000000" d="M 367.790482243984 301.83732514237585 L 372 312 L 376.209517756016 301.83732514237585 L 367.790482243984 301.83732514237585" stroke-miterlimit="10"/></g><g transform="translate(-94,-158) scale(1,1)"><path fill="#ffffff" stroke="none" d="M 120 168 L 239.97900390625 168 L 249.97900390625 178 L 249.97900390625 206 L 120 206 L 120 168"/></g><g transform="translate(-94,-158) scale(1,1)"><path fill="none" stroke="#000000" d="M 120 168 L 239.97900390625 168 L 249.97900390625 178 L 249.97900390625 206 L 120 206 L 120 168 L 120 168" stroke-miterlimit="10"/></g><g transform="translate(-94,-158) scale(1,1)"><path fill="none" stroke="#000000" d="M 239.97900390625 168 L 239.97900390625 178 L 249.97900390625 178 L 239.97900390625 168" stroke-miterlimit="10"/></g><g transform="translate(-94,-158) scale(1,1)"><g><path fill="none" stroke="none"/><text fill="#000000" stroke="none" font-family="Arial" font-size="13px" font-style="normal" font-weight="normal" text-decoration="none" x="125" y="186">RealTimeController</text></g></g><g transform="translate(-94,-158) scale(1,1)"><path fill="#ffffff" stroke="none" d="M 272 672 L 375.37353515625 672 L 385.37353515625 682 L 385.37353515625 710 L 272 710 L 272 672"/></g><g transform="translate(-94,-158) scale(1,1)"><path fill="none" stroke="#000000" d="M 272 672 L 375.37353515625 672 L 385.37353515625 682 L 385.37353515625 710 L 272 710 L 272 672 L 272 672" stroke-miterlimit="10"/></g><g transform="translate(-94,-158) scale(1,1)"><path fill="none" stroke="#000000" d="M 375.37353515625 672 L 375.37353515625 682 L 385.37353515625 682 L 375.37353515625 672" stroke-miterlimit="10"/></g><g transform="translate(-94,-158) scale(1,1)"><g><path fill="none" stroke="none"/><text fill="#000000" stroke="none" font-family="Arial" font-size="13px" font-style="normal" font-weight="normal" text-decoration="none" x="277" y="690">ReportController</text></g></g><g transform="translate(-94,-158) scale(1,1)"><path fill="none" stroke="#000000" d="M 189 208 L 196 247" stroke-miterlimit="10" stroke-dasharray="3"/></g><g transform="translate(-94,-158) scale(1,1)"><path fill="none" stroke="#000000" d="M 333 671 L 343 624" stroke-miterlimit="10" stroke-dasharray="3"/></g><g transform="translate(-94,-158) scale(1,1)"><rect fill="#6dceff" stroke="none" x="248" y="504" width="73.18994140625" height="45"/></g><g transform="translate(-94,-158) scale(1,1)"><path fill="none" stroke="#000000" d="M 248 504 L 321.18994140625 504 L 321.18994140625 549 L 248 549 L 248 504 Z Z" stroke-miterlimit="10"/></g><g transform="translate(-94,-158) scale(1,1)"><g><path fill="none" stroke="none"/><text fill="#000000" stroke="none" font-family="Arial" font-size="13px" font-style="normal" font-weight="normal" text-decoration="none" x="268.33544921875" y="526.5">Salva</text><text fill="#000000" stroke="none" font-family="Arial" font-size="13px" font-style="normal" font-weight="normal" text-decoration="none" x="261.11181640625" y="539.5">relatório</text></g></g><g transform="translate(-94,-158) scale(1,1)"><path fill="none" stroke="#000000" d="M 184 568 L 184 536 M 184 536 A 8 8 0 0 1 192 528 L 248 528" stroke-miterlimit="10"/></g><g transform="translate(-94,-158) scale(1,1)"><path fill="#000000" stroke="none" d="M 237.83732514237585 532.209517756016 L 248 528 L 237.83732514237585 523.790482243984"/></g><g transform="translate(-94,-158) scale(1,1)"><path fill="none" stroke="#000000" d="M 237.83732514237585 532.209517756016 L 248 528 L 237.83732514237585 523.790482243984 L 237.83732514237585 532.209517756016" stroke-miterlimit="10"/></g><g transform="translate(-94,-158) scale(1,1)"><path fill="none" stroke="#000000" d="M 280 549 L 280 568 M 280 568 A 8 8 0 0 1 272 576 L 217 576" stroke-miterlimit="10"/></g><g transform="translate(-94,-158) scale(1,1)"><path fill="#000000" stroke="none" d="M 227.16267485762415 571.790482243984 L 217 576 L 227.16267485762415 580.209517756016"/></g><g transform="translate(-94,-158) scale(1,1)"><path fill="none" stroke="#000000" d="M 227.16267485762415 571.790482243984 L 217 576 L 227.16267485762415 580.209517756016 L 227.16267485762415 571.790482243984" stroke-miterlimit="10"/></g><g transform="translate(-94,-158) scale(1,1)"><rect fill="#ff8056" stroke="none" x="448" y="296" width="136" height="56"/></g><g transform="translate(-94,-158) scale(1,1)"><path fill="none" stroke="#000000" d="M 448 296 L 584 296 L 584 352 L 448 352 L 448 296 Z Z" stroke-miterlimit="10"/></g><g transform="translate(-94,-158) scale(1,1)"><g><path fill="none" stroke="none"/><text fill="#000000" stroke="none" font-family="Arial" font-size="13px" font-style="normal" font-weight="normal" text-decoration="none" x="482.036865234375" y="318.5">Diagnóstico</text></g></g><g transform="translate(-94,-158) scale(1,1)"><path fill="none" stroke="#000000" d="M 409 325 L 448 325" stroke-miterlimit="10"/></g><g transform="translate(-94,-158) scale(1,1)"><path fill="#000000" stroke="none" d="M 437.83732514237585 329.209517756016 L 448 325 L 437.83732514237585 320.790482243984"/></g><g transform="translate(-94,-158) scale(1,1)"><path fill="none" stroke="#000000" d="M 437.83732514237585 329.209517756016 L 448 325 L 437.83732514237585 320.790482243984 L 437.83732514237585 329.209517756016" stroke-miterlimit="10"/></g><g transform="translate(-94,-158) scale(1,1)"><path fill="none" stroke="#000000" d="M 520 296 L 520 264 M 520 264 A 8 8 0 0 0 512 256 L 408 256 M 408 256 A 8 8 0 0 0 400 264 L 400 312" stroke-miterlimit="10"/></g><g transform="translate(-94,-158) scale(1,1)"><path fill="#000000" stroke="none" d="M 395.790482243984 301.83732514237585 L 400 312 L 404.209517756016 301.83732514237585"/></g><g transform="translate(-94,-158) scale(1,1)"><path fill="none" stroke="#000000" d="M 395.790482243984 301.83732514237585 L 400 312 L 404.209517756016 301.83732514237585 L 395.790482243984 301.83732514237585" stroke-miterlimit="10"/></g><g transform="translate(-94,-158) scale(1,1)"><path fill="#ffffff" stroke="none" d="M 504 176 L 606.66259765625 176 L 616.66259765625 186 L 616.66259765625 214 L 504 214 L 504 176"/></g><g transform="translate(-94,-158) scale(1,1)"><path fill="none" stroke="#000000" d="M 504 176 L 606.66259765625 176 L 616.66259765625 186 L 616.66259765625 214 L 504 214 L 504 176 L 504 176" stroke-miterlimit="10"/></g><g transform="translate(-94,-158) scale(1,1)"><path fill="none" stroke="#000000" d="M 606.66259765625 176 L 606.66259765625 186 L 616.66259765625 186 L 606.66259765625 176" stroke-miterlimit="10"/></g><g transform="translate(-94,-158) scale(1,1)"><g><path fill="none" stroke="none"/><text fill="#000000" stroke="none" font-family="Arial" font-size="13px" font-style="normal" font-weight="normal" text-decoration="none" x="509" y="194">DebugController</text></g></g><g transform="translate(-94,-158) scale(1,1)"><path fill="none" stroke="#000000" d="M 553 216 L 535 271" stroke-miterlimit="10" stroke-dasharray="3"/></g><g transform="translate(-94,-158) scale(1,1)"><path fill="none" stroke="#000000" d="M 312 456 L 216 456 M 216 456 A 8 8 0 0 1 208 448 L 208 354" stroke-miterlimit="10"/></g><g transform="translate(-94,-158) scale(1,1)"><path fill="#000000" stroke="none" d="M 212.209517756016 364.16267485762415 L 208 354 L 203.790482243984 364.16267485762415"/></g><g transform="translate(-94,-158) scale(1,1)"><path fill="none" stroke="#000000" d="M 212.209517756016 364.16267485762415 L 208 354 L 203.790482243984 364.16267485762415 L 212.209517756016 364.16267485762415" stroke-miterlimit="10"/></g><g transform="translate(-94,-158) scale(1,1)"><path fill="none" stroke="#000000" d="M 432 456 L 504 456 M 504 456 A 8 8 0 0 0 512 448 L 512 352" stroke-miterlimit="10"/></g><g transform="translate(-94,-158) scale(1,1)"><path fill="#000000" stroke="none" d="M 516.209517756016 362.16267485762415 L 512 352 L 507.790482243984 362.16267485762415"/></g><g transform="translate(-94,-158) scale(1,1)"><path fill="none" stroke="#000000" d="M 516.209517756016 362.16267485762415 L 512 352 L 507.790482243984 362.16267485762415 L 516.209517756016 362.16267485762415" stroke-miterlimit="10"/></g><g transform="translate(-94,-158) scale(1,1)"><path fill="none" stroke="#000000" d="M 208 354 L 208 448 M 208 448 A 8 8 0 0 0 216 456 L 312 456" stroke-miterlimit="10"/></g><g transform="translate(-94,-158) scale(1,1)"><path fill="#000000" stroke="none" d="M 301.83732514237585 460.209517756016 L 312 456 L 301.83732514237585 451.790482243984"/></g><g transform="translate(-94,-158) scale(1,1)"><path fill="none" stroke="#000000" d="M 301.83732514237585 460.209517756016 L 312 456 L 301.83732514237585 451.790482243984 L 301.83732514237585 460.209517756016" stroke-miterlimit="10"/></g><g transform="translate(-94,-158) scale(1,1)"><path fill="none" stroke="#000000" d="M 512 352 L 512 448 M 512 448 A 8 8 0 0 1 504 456 L 432 456" stroke-miterlimit="10"/></g><g transform="translate(-94,-158) scale(1,1)"><path fill="#000000" stroke="none" d="M 442.16267485762415 451.790482243984 L 432 456 L 442.16267485762415 460.209517756016"/></g><g transform="translate(-94,-158) scale(1,1)"><path fill="none" stroke="#000000" d="M 442.16267485762415 451.790482243984 L 432 456 L 442.16267485762415 460.209517756016 L 442.16267485762415 451.790482243984" stroke-miterlimit="10"/></g></g></svg>