<svg version="1.1" xmlns="http://www.w3.org/2000/svg" xmlns:xlink="http://www.w3.org/1999/xlink" width="573" height="523"><defs/><g><g transform="translate(-94,-158) scale(1,1)"><rect fill="#91ffec" stroke="none" x="112" y="248" width="175" height="119"/></g><g transform="translate(-94,-158) scale(1,1)"><path fill="none" stroke="#000000" d="M 112 248 L 287 248 L 287 367 L 112 367 L 112 248 Z Z" stroke-miterlimit="10"/></g><g transform="translate(-94,-158) scale(1,1)"><rect fill="#91ffec" stroke="none" x="104" y="384" width="527" height="215"/></g><g transform="translate(-94,-158) scale(1,1)"><path fill="none" stroke="#000000" d="M 104 384 L 631 384 L 631 599 L 104 599 L 104 384 Z Z" stroke-miterlimit="10"/></g><g transform="translate(-94,-158) scale(1,1)"><rect fill="#707070" stroke="none" x="336" y="312" width="73.18994140625" height="32"/></g><g transform="translate(-94,-158) scale(1,1)"><path fill="none" stroke="#000000" d="M 336 312 L 409.18994140625 312 L 409.18994140625 344 L 336 344 L 336 312 Z Z" stroke-miterlimit="10"/></g><g transform="translate(-94,-158) scale(1,1)"><g><path fill="none" stroke="none"/><text fill="#000000" stroke="none" font-family="Arial" font-size="13px" font-style="normal" font-weight="normal" text-decoration="none" x="357.4208984375" y="334.5">Inicio</text></g></g><g transform="translate(-94,-158) scale(1,1)"><rect fill="#91ffec" stroke="none" x="152" y="296" width="106" height="58"/></g><g transform="translate(-94,-158) scale(1,1)"><path fill="none" stroke="#000000" d="M 152 296 L 258 296 L 258 354 L 152 354 L 152 296 Z Z" stroke-miterlimit="10"/></g><g transform="translate(-94,-158) scale(1,1)"><g><path fill="none" stroke="none"/><text fill="#000000" stroke="none" font-family="Arial" font-size="13px" font-style="normal" font-weight="normal" text-decoration="none" x="171.043212890625" y="318.5">COP tempo</text><text fill="#000000" stroke="none" font-family="Arial" font-size="13px" font-style="normal" font-weight="normal" text-decoration="none" x="194.161376953125" y="331.5">real</text></g></g><g transform="translate(-94,-158) scale(1,1)"><rect fill="#91ffec" stroke="none" x="336" y="416" width="120" height="45"/></g><g transform="translate(-94,-158) scale(1,1)"><path fill="none" stroke="#000000" d="M 336 416 L 456 416 L 456 461 L 336 461 L 336 416 Z Z" stroke-miterlimit="10"/></g><g transform="translate(-94,-158) scale(1,1)"><g><path fill="none" stroke="none"/><text fill="#000000" stroke="none" font-family="Arial" font-size="13px" font-style="normal" font-weight="normal" text-decoration="none" x="370.70458984375" y="438.5">Menu de</text><text fill="#000000" stroke="none" font-family="Arial" font-size="13px" font-style="normal" font-weight="normal" text-decoration="none" x="371.431396484375" y="451.5">Medição</text></g></g><g transform="translate(-94,-158) scale(1,1)"><rect fill="#707070" stroke="none" x="112" y="416" width="147" height="58"/></g><g transform="translate(-94,-158) scale(1,1)"><path fill="none" stroke="#000000" d="M 112 416 L 259 416 L 259 474 L 112 474 L 112 416 Z Z" stroke-miterlimit="10"/></g><g transform="translate(-94,-158) scale(1,1)"><g><path fill="none" stroke="none"/><text fill="#000000" stroke="none" font-family="Arial" font-size="13px" font-style="normal" font-weight="normal" text-decoration="none" x="133.477783203125" y="438.5">Carregar medição</text><text fill="#000000" stroke="none" font-family="Arial" font-size="13px" font-style="normal" font-weight="normal" text-decoration="none" x="170.325927734375" y="451.5">salva</text></g></g><g transform="translate(-94,-158) scale(1,1)"><rect fill="#91ffec" stroke="none" x="544" y="416" width="73.18994140625" height="32"/></g><g transform="translate(-94,-158) scale(1,1)"><path fill="none" stroke="#000000" d="M 544 416 L 617.18994140625 416 L 617.18994140625 448 L 544 448 L 544 416 Z Z" stroke-miterlimit="10"/></g><g transform="translate(-94,-158) scale(1,1)"><g><path fill="none" stroke="none"/><text fill="#000000" stroke="none" font-family="Arial" font-size="13px" font-style="normal" font-weight="normal" text-decoration="none" x="564.341796875" y="438.5">Medir</text></g></g><g transform="translate(-94,-158) scale(1,1)"><rect fill="#91ffec" stroke="none" x="336" y="552" width="73.18994140625" height="32"/></g><g transform="translate(-94,-158) scale(1,1)"><path fill="none" stroke="#000000" d="M 336 552 L 409.18994140625 552 L 409.18994140625 584 L 336 584 L 336 552 Z Z" stroke-miterlimit="10"/></g><g transform="translate(-94,-158) scale(1,1)"><g><path fill="none" stroke="none"/><text fill="#000000" stroke="none" font-family="Arial" font-size="13px" font-style="normal" font-weight="normal" text-decoration="none" x="346.582275390625" y="574.5">Relatório</text></g></g><g transform="translate(-94,-158) scale(1,1)"><path fill="none" stroke="#000000" d="M 336 320 L 258 320" stroke-miterlimit="10"/></g><g transform="translate(-94,-158) scale(1,1)"><path fill="#000000" stroke="none" d="M 268.16267485762415 315.790482243984 L 258 320 L 268.16267485762415 324.209517756016"/></g><g transform="translate(-94,-158) scale(1,1)"><path fill="none" stroke="#000000" d="M 268.16267485762415 315.790482243984 L 258 320 L 268.16267485762415 324.209517756016 L 268.16267485762415 315.790482243984" stroke-miterlimit="10"/></g><g transform="translate(-94,-158) scale(1,1)"><path fill="none" stroke="#000000" d="M 352 344 L 352 416" stroke-miterlimit="10"/></g><g transform="translate(-94,-158) scale(1,1)"><path fill="#000000" stroke="none" d="M 347.790482243984 405.83732514237585 L 352 416 L 356.209517756016 405.83732514237585"/></g><g transform="translate(-94,-158) scale(1,1)"><path fill="none" stroke="#000000" d="M 347.790482243984 405.83732514237585 L 352 416 L 356.209517756016 405.83732514237585 L 347.790482243984 405.83732514237585" stroke-miterlimit="10"/></g><g transform="translate(-94,-158) scale(1,1)"><path fill="none" stroke="#000000" d="M 336 448 L 259 448" stroke-miterlimit="10"/></g><g transform="translate(-94,-158) scale(1,1)"><path fill="#000000" stroke="none" d="M 269.16267485762415 443.790482243984 L 259 448 L 269.16267485762415 452.209517756016"/></g><g transform="translate(-94,-158) scale(1,1)"><path fill="none" stroke="#000000" d="M 269.16267485762415 443.790482243984 L 259 448 L 269.16267485762415 452.209517756016 L 269.16267485762415 443.790482243984" stroke-miterlimit="10"/></g><g transform="translate(-94,-158) scale(1,1)"><path fill="none" stroke="#000000" d="M 456 432 L 544 432" stroke-miterlimit="10"/></g><g transform="translate(-94,-158) scale(1,1)"><path fill="#000000" stroke="none" d="M 533.8373251423759 436.209517756016 L 544 432 L 533.8373251423758 427.790482243984"/></g><g transform="translate(-94,-158) scale(1,1)"><path fill="none" stroke="#000000" d="M 533.8373251423759 436.209517756016 L 544 432 L 533.8373251423758 427.790482243984 L 533.8373251423759 436.209517756016" stroke-miterlimit="10"/></g><g transform="translate(-94,-158) scale(1,1)"><path fill="none" stroke="#000000" d="M 579 448 L 579 568 M 579 568 A 8 8 0 0 1 571 576 L 409 576" stroke-miterlimit="10"/></g><g transform="translate(-94,-158) scale(1,1)"><path fill="#000000" stroke="none" d="M 419.16267485762415 571.790482243984 L 409 576 L 419.16267485762415 580.209517756016"/></g><g transform="translate(-94,-158) scale(1,1)"><path fill="none" stroke="#000000" d="M 419.16267485762415 571.790482243984 L 409 576 L 419.16267485762415 580.209517756016 L 419.16267485762415 571.790482243984" stroke-miterlimit="10"/></g><g transform="translate(-94,-158) scale(1,1)"><path fill="none" stroke="#000000" d="M 156 474 L 156 560 M 156 560 A 8 8 0 0 0 164 568 L 336 568" stroke-miterlimit="10"/></g><g transform="translate(-94,-158) scale(1,1)"><path fill="#000000" stroke="none" d="M 325.83732514237585 572.209517756016 L 336 568 L 325.83732514237585 563.790482243984"/></g><g transform="translate(-94,-158) scale(1,1)"><path fill="none" stroke="#000000" d="M 325.83732514237585 572.209517756016 L 336 568 L 325.83732514237585 563.790482243984 L 325.83732514237585 572.209517756016" stroke-miterlimit="10"/></g><g transform="translate(-94,-158) scale(1,1)"><path fill="none" stroke="#000000" d="M 200 296 L 200 272 M 200 272 A 8 8 0 0 1 208 264 L 344 264 M 344 264 A 8 8 0 0 1 352 272 L 352 312" stroke-miterlimit="10"/></g><g transform="translate(-94,-158) scale(1,1)"><path fill="#000000" stroke="none" d="M 347.790482243984 301.83732514237585 L 352 312 L 356.209517756016 301.83732514237585"/></g><g transform="translate(-94,-158) scale(1,1)"><path fill="none" stroke="#000000" d="M 347.790482243984 301.83732514237585 L 352 312 L 356.209517756016 301.83732514237585 L 347.790482243984 301.83732514237585" stroke-miterlimit="10"/></g><g transform="translate(-94,-158) scale(1,1)"><path fill="none" stroke="#000000" d="M 392 416 L 392 344" stroke-miterlimit="10"/></g><g transform="translate(-94,-158) scale(1,1)"><path fill="#000000" stroke="none" d="M 396.209517756016 354.16267485762415 L 392 344 L 387.790482243984 354.16267485762415"/></g><g transform="translate(-94,-158) scale(1,1)"><path fill="none" stroke="#000000" d="M 396.209517756016 354.16267485762415 L 392 344 L 387.790482243984 354.16267485762415 L 396.209517756016 354.16267485762415" stroke-miterlimit="10"/></g><g transform="translate(-94,-158) scale(1,1)"><path fill="none" stroke="#000000" d="M 376 584 L 376 616 M 376 616 A 8 8 0 0 0 384 624 L 648 624 M 648 624 A 8 8 0 0 0 656 616 L 656 272 M 656 272 A 8 8 0 0 0 648 264 L 392 264 M 392 264 A 8 8 0 0 0 384 272 L 384 312" stroke-miterlimit="10"/></g><g transform="translate(-94,-158) scale(1,1)"><path fill="#000000" stroke="none" d="M 379.790482243984 301.83732514237585 L 384 312 L 388.209517756016 301.83732514237585"/></g><g transform="translate(-94,-158) scale(1,1)"><path fill="none" stroke="#000000" d="M 379.790482243984 301.83732514237585 L 384 312 L 388.209517756016 301.83732514237585 L 379.790482243984 301.83732514237585" stroke-miterlimit="10"/></g><g transform="translate(-94,-158) scale(1,1)"><rect fill="#707070" stroke="none" x="336" y="184" width="73.18994140625" height="32"/></g><g transform="translate(-94,-158) scale(1,1)"><path fill="none" stroke="#000000" d="M 336 184 L 409.18994140625 184 L 409.18994140625 216 L 336 216 L 336 184 Z Z" stroke-miterlimit="10"/></g><g transform="translate(-94,-158) scale(1,1)"><g><path fill="none" stroke="none"/><text fill="#000000" stroke="none" font-family="Arial" font-size="13px" font-style="normal" font-weight="normal" text-decoration="none" x="355.25" y="206.5">Sobre</text></g></g><g transform="translate(-94,-158) scale(1,1)"><path fill="none" stroke="#000000" d="M 372 312 L 372 216" stroke-miterlimit="10"/></g><g transform="translate(-94,-158) scale(1,1)"><path fill="#000000" stroke="none" d="M 376.209517756016 226.16267485762415 L 372 216 L 367.790482243984 226.16267485762415"/></g><g transform="translate(-94,-158) scale(1,1)"><path fill="none" stroke="#000000" d="M 376.209517756016 226.16267485762415 L 372 216 L 367.790482243984 226.16267485762415 L 376.209517756016 226.16267485762415" stroke-miterlimit="10"/></g><g transform="translate(-94,-158) scale(1,1)"><path fill="none" stroke="#000000" d="M 372 216 L 372 312" stroke-miterlimit="10"/></g><g transform="translate(-94,-158) scale(1,1)"><path fill="#000000" stroke="none" d="M 367.790482243984 301.83732514237585 L 372 312 L 376.209517756016 301.83732514237585"/></g><g transform="translate(-94,-158) scale(1,1)"><path fill="none" stroke="#000000" d="M 367.790482243984 301.83732514237585 L 372 312 L 376.209517756016 301.83732514237585 L 367.790482243984 301.83732514237585" stroke-miterlimit="10"/></g><g transform="translate(-94,-158) scale(1,1)"><path fill="#ffffff" stroke="none" d="M 120 168 L 239.97900390625 168 L 249.97900390625 178 L 249.97900390625 206 L 120 206 L 120 168"/></g><g transform="translate(-94,-158) scale(1,1)"><path fill="none" stroke="#000000" d="M 120 168 L 239.97900390625 168 L 249.97900390625 178 L 249.97900390625 206 L 120 206 L 120 168 L 120 168" stroke-miterlimit="10"/></g><g transform="translate(-94,-158) scale(1,1)"><path fill="none" stroke="#000000" d="M 239.97900390625 168 L 239.97900390625 178 L 249.97900390625 178 L 239.97900390625 168" stroke-miterlimit="10"/></g><g transform="translate(-94,-158) scale(1,1)"><g><path fill="none" stroke="none"/><text fill="#000000" stroke="none" font-family="Arial" font-size="13px" font-style="normal" font-weight="normal" text-decoration="none" x="125" y="186">RealTimeController</text></g></g><g transform="translate(-94,-158) scale(1,1)"><path fill="#ffffff" stroke="none" d="M 152 632 L 255.37353515625 632 L 265.37353515625 642 L 265.37353515625 670 L 152 670 L 152 632"/></g><g transform="translate(-94,-158) scale(1,1)"><path fill="none" stroke="#000000" d="M 152 632 L 255.37353515625 632 L 265.37353515625 642 L 265.37353515625 670 L 152 670 L 152 632 L 152 632" stroke-miterlimit="10"/></g><g transform="translate(-94,-158) scale(1,1)"><path fill="none" stroke="#000000" d="M 255.37353515625 632 L 255.37353515625 642 L 265.37353515625 642 L 255.37353515625 632" stroke-miterlimit="10"/></g><g transform="translate(-94,-158) scale(1,1)"><g><path fill="none" stroke="none"/><text fill="#000000" stroke="none" font-family="Arial" font-size="13px" font-style="normal" font-weight="normal" text-decoration="none" x="157" y="650">ReportController</text></g></g><g transform="translate(-94,-158) scale(1,1)"><path fill="none" stroke="#000000" d="M 187 208 L 192 247" stroke-miterlimit="10" stroke-dasharray="3"/></g><g transform="translate(-94,-158) scale(1,1)"><path fill="none" stroke="#000000" d="M 229 631 L 259 600" stroke-miterlimit="10" stroke-dasharray="3"/></g><g transform="translate(-94,-158) scale(1,1)"><rect fill="#707070" stroke="none" x="448" y="480" width="73.18994140625" height="45"/></g><g transform="translate(-94,-158) scale(1,1)"><path fill="none" stroke="#000000" d="M 448 480 L 521.18994140625 480 L 521.18994140625 525 L 448 525 L 448 480 Z Z" stroke-miterlimit="10"/></g><g transform="translate(-94,-158) scale(1,1)"><g><path fill="none" stroke="none"/><text fill="#000000" stroke="none" font-family="Arial" font-size="13px" font-style="normal" font-weight="normal" text-decoration="none" x="468.33544921875" y="502.5">Salva</text><text fill="#000000" stroke="none" font-family="Arial" font-size="13px" font-style="normal" font-weight="normal" text-decoration="none" x="458.582275390625" y="515.5">Relatório</text></g></g><g transform="translate(-94,-158) scale(1,1)"><path fill="none" stroke="#000000" d="M 409 560 L 472 560 M 472 560 A 8 8 0 0 0 480 552 L 480 525" stroke-miterlimit="10"/></g><g transform="translate(-94,-158) scale(1,1)"><path fill="#000000" stroke="none" d="M 484.209517756016 535.1626748576241 L 480 525 L 475.790482243984 535.1626748576241"/></g><g transform="translate(-94,-158) scale(1,1)"><path fill="none" stroke="#000000" d="M 484.209517756016 535.1626748576241 L 480 525 L 475.790482243984 535.1626748576241 L 484.209517756016 535.1626748576241" stroke-miterlimit="10"/></g><g transform="translate(-94,-158) scale(1,1)"><path fill="none" stroke="#000000" d="M 448 504 L 384 504 M 384 504 A 8 8 0 0 0 376 512 L 376 552" stroke-miterlimit="10"/></g><g transform="translate(-94,-158) scale(1,1)"><path fill="#000000" stroke="none" d="M 371.790482243984 541.8373251423759 L 376 552 L 380.209517756016 541.8373251423759"/></g><g transform="translate(-94,-158) scale(1,1)"><path fill="none" stroke="#000000" d="M 371.790482243984 541.8373251423759 L 376 552 L 380.209517756016 541.8373251423759 L 371.790482243984 541.8373251423759" stroke-miterlimit="10"/></g></g></svg>