<svg version="1.1" xmlns="http://www.w3.org/2000/svg" xmlns:xlink="http://www.w3.org/1999/xlink" width="595.60986328125" height="1075"><defs/><g><g transform="translate(-190,-94) scale(1,1)"><rect fill="#a3ffa3" stroke="none" x="200" y="904" width="288" height="255"/></g><g transform="translate(-190,-94) scale(1,1)"><path fill="none" stroke="#000000" d="M 200 904 L 488 904 L 488 1159 L 200 1159 L 200 904 Z Z" stroke-miterlimit="10"/></g><g transform="translate(-190,-94) scale(1,1)"><rect fill="#ffffff" stroke="none" x="480" y="616" width="136" height="271"/></g><g transform="translate(-190,-94) scale(1,1)"><path fill="none" stroke="#000000" d="M 480 616 L 616 616 L 616 887 L 480 887 L 480 616 Z Z" stroke-miterlimit="10"/></g><g transform="translate(-190,-94) scale(1,1)"><path fill="none" stroke="#000000" d="M 485 616 L 485 887" stroke-miterlimit="10"/></g><g transform="translate(-190,-94) scale(1,1)"><path fill="none" stroke="#000000" d="M 611 616 L 611 887" stroke-miterlimit="10"/></g><g transform="translate(-190,-94) scale(1,1)"><g><path fill="none" stroke="none"/><text fill="#000000" stroke="none" font-family="Arial" font-size="13px" font-style="normal" font-weight="normal" text-decoration="none" x="527.734130859375" y="638.5">connect</text></g></g><g transform="translate(-190,-94) scale(1,1)"><rect fill="#ffffff" stroke="none" x="420" y="104" width="73.18994140625" height="32"/></g><g transform="translate(-190,-94) scale(1,1)"><path fill="none" stroke="#000000" d="M 420 104 L 493.18994140625 104 L 493.18994140625 136 L 420 136 L 420 104 Z Z" stroke-miterlimit="10"/></g><g transform="translate(-190,-94) scale(1,1)"><g><path fill="none" stroke="none"/><text fill="#000000" stroke="none" font-family="Arial" font-size="13px" font-style="normal" font-weight="normal" text-decoration="none" x="442.135009765625" y="126.5">Load</text></g></g><g transform="translate(-190,-94) scale(1,1)"><rect fill="#ffffff" stroke="none" x="420" y="400" width="73.18994140625" height="58"/></g><g transform="translate(-190,-94) scale(1,1)"><path fill="none" stroke="#000000" d="M 420 400 L 493.18994140625 400 L 493.18994140625 458 L 420 458 L 420 400 Z Z" stroke-miterlimit="10"/></g><g transform="translate(-190,-94) scale(1,1)"><g><path fill="none" stroke="none"/><text fill="#000000" stroke="none" font-family="Arial" font-size="13px" font-style="normal" font-weight="normal" text-decoration="none" x="433.83544921875" y="422.5">Procura</text><text fill="#000000" stroke="none" font-family="Arial" font-size="13px" font-style="normal" font-weight="normal" text-decoration="none" x="444.305908203125" y="435.5">pela</text><text fill="#000000" stroke="none" font-family="Arial" font-size="13px" font-style="normal" font-weight="normal" text-decoration="none" x="441.055908203125" y="448.5">placa</text></g></g><g transform="translate(-190,-94) scale(1,1)"><path fill="#ffffff" stroke="none" d="M 429 231 L 484.1435546875 224 L 484.1435546875 269 L 429 269 L 429 231"/></g><g transform="translate(-190,-94) scale(1,1)"><path fill="none" stroke="#000000" d="M 429 231 L 484.1435546875 224 L 484.1435546875 269 L 429 269 L 429 231 L 429 231" stroke-miterlimit="10"/></g><g transform="translate(-190,-94) scale(1,1)"><g><path fill="none" stroke="none"/><text fill="#000000" stroke="none" font-family="Arial" font-size="13px" font-style="normal" font-weight="normal" text-decoration="none" x="443.57177734375" y="250">BTN</text><text fill="#000000" stroke="none" font-family="Arial" font-size="13px" font-style="normal" font-weight="normal" text-decoration="none" x="440.67724609375" y="263">press</text></g></g><g transform="translate(-190,-94) scale(1,1)"><path fill="none" stroke="#000000" d="M 456 136 L 456 224" stroke-miterlimit="10"/></g><g transform="translate(-190,-94) scale(1,1)"><path fill="#000000" stroke="none" d="M 451.790482243984 213.83732514237585 L 456 224 L 460.209517756016 213.83732514237585"/></g><g transform="translate(-190,-94) scale(1,1)"><path fill="none" stroke="#000000" d="M 451.790482243984 213.83732514237585 L 456 224 L 460.209517756016 213.83732514237585 L 451.790482243984 213.83732514237585" stroke-miterlimit="10"/></g><g transform="translate(-190,-94) scale(1,1)"><path fill="#ffffff" stroke="none" d="M 392 561.5 L 456.55078125 536 L 521.1015625 561.5 L 456.55078125 587 L 392 561.5"/></g><g transform="translate(-190,-94) scale(1,1)"><path fill="none" stroke="#000000" d="M 392 561.5 L 456.55078125 536 L 521.1015625 561.5 L 456.55078125 587 L 392 561.5 L 392 561.5" stroke-miterlimit="10"/></g><g transform="translate(-190,-94) scale(1,1)"><g><path fill="none" stroke="none"/><text fill="#000000" stroke="none" font-family="Arial" font-size="13px" font-style="normal" font-weight="normal" text-decoration="none" x="440.291259765625" y="561.5">Placa</text><text fill="#000000" stroke="none" font-family="Arial" font-size="13px" font-style="normal" font-weight="normal" text-decoration="none" x="424.025390625" y="574.5">encontrada</text></g></g><g transform="translate(-190,-94) scale(1,1)"><rect fill="#ffffff" stroke="none" x="512" y="648" width="73.18994140625" height="58"/></g><g transform="translate(-190,-94) scale(1,1)"><path fill="none" stroke="#000000" d="M 512 648 L 585.18994140625 648 L 585.18994140625 706 L 512 706 L 512 648 Z Z" stroke-miterlimit="10"/></g><g transform="translate(-190,-94) scale(1,1)"><g><path fill="none" stroke="none"/><text fill="#000000" stroke="none" font-family="Arial" font-size="13px" font-style="normal" font-weight="normal" text-decoration="none" x="524.385009765625" y="670.5">Conecta</text><text fill="#000000" stroke="none" font-family="Arial" font-size="13px" font-style="normal" font-weight="normal" text-decoration="none" x="530.89453125" y="683.5">com a</text><text fill="#000000" stroke="none" font-family="Arial" font-size="13px" font-style="normal" font-weight="normal" text-decoration="none" x="533.055908203125" y="696.5">placa</text></g></g><g transform="translate(-190,-94) scale(1,1)"><rect fill="#ffffff" stroke="none" x="512" y="824" width="73.18994140625" height="45"/></g><g transform="translate(-190,-94) scale(1,1)"><path fill="none" stroke="#000000" d="M 512 824 L 585.18994140625 824 L 585.18994140625 869 L 512 869 L 512 824 Z Z" stroke-miterlimit="10"/></g><g transform="translate(-190,-94) scale(1,1)"><g><path fill="none" stroke="none"/><text fill="#000000" stroke="none" font-family="Arial" font-size="13px" font-style="normal" font-weight="normal" text-decoration="none" x="524.391357421875" y="846.5">Registra</text><text fill="#000000" stroke="none" font-family="Arial" font-size="13px" font-style="normal" font-weight="normal" text-decoration="none" x="525.8291015625" y="859.5">eventos</text></g></g><g transform="translate(-190,-94) scale(1,1)"><rect fill="#ffffff" stroke="none" x="254" y="663" width="84.05078125" height="32"/></g><g transform="translate(-190,-94) scale(1,1)"><path fill="none" stroke="#000000" d="M 254 663 L 338.05078125 663 L 338.05078125 695 L 254 695 L 254 663 Z Z" stroke-miterlimit="10"/></g><g transform="translate(-190,-94) scale(1,1)"><g><path fill="none" stroke="none"/><text fill="#000000" stroke="none" font-family="Arial" font-size="13px" font-style="normal" font-weight="normal" text-decoration="none" x="287.36083984375" y="685.5">Err</text></g></g><g transform="translate(-190,-94) scale(1,1)"><path fill="none" stroke="#000000" d="M 455 458 L 455 536" stroke-miterlimit="10"/></g><g transform="translate(-190,-94) scale(1,1)"><path fill="#000000" stroke="none" d="M 450.790482243984 525.8373251423759 L 455 536 L 459.209517756016 525.8373251423759"/></g><g transform="translate(-190,-94) scale(1,1)"><path fill="none" stroke="#000000" d="M 450.790482243984 525.8373251423759 L 455 536 L 459.209517756016 525.8373251423759 L 450.790482243984 525.8373251423759" stroke-miterlimit="10"/></g><g transform="translate(-190,-94) scale(1,1)"><path fill="none" stroke="#000000" d="M 392 560 L 304 560 M 304 560 A 8 8 0 0 0 296 568 L 296 663" stroke-miterlimit="10"/></g><g transform="translate(-190,-94) scale(1,1)"><path fill="#000000" stroke="none" d="M 291.790482243984 652.8373251423759 L 296 663 L 300.209517756016 652.8373251423759"/></g><g transform="translate(-190,-94) scale(1,1)"><path fill="none" stroke="#000000" d="M 291.790482243984 652.8373251423759 L 296 663 L 300.209517756016 652.8373251423759 L 291.790482243984 652.8373251423759" stroke-miterlimit="10"/></g><g transform="translate(-190,-94) scale(1,1)"><g><path fill="none" stroke="none"/><text fill="#000000" stroke="none" font-family="Arial" font-size="13px" font-style="normal" font-weight="normal" text-decoration="none" x="307" y="549">N</text></g></g><g transform="translate(-190,-94) scale(1,1)"><path fill="none" stroke="#000000" d="M 521 560 L 640 560 M 640 560 A 8 8 0 0 1 648 568 L 648 664 M 648 664 A 8 8 0 0 1 640 672 L 585 672" stroke-miterlimit="10"/></g><g transform="translate(-190,-94) scale(1,1)"><path fill="#000000" stroke="none" d="M 595.1626748576241 667.790482243984 L 585 672 L 595.1626748576241 676.209517756016"/></g><g transform="translate(-190,-94) scale(1,1)"><path fill="none" stroke="#000000" d="M 595.1626748576241 667.790482243984 L 585 672 L 595.1626748576241 676.209517756016 L 595.1626748576241 667.790482243984" stroke-miterlimit="10"/></g><g transform="translate(-190,-94) scale(1,1)"><g><path fill="none" stroke="none"/><text fill="#000000" stroke="none" font-family="Arial" font-size="13px" font-style="normal" font-weight="normal" text-decoration="none" x="535" y="548">S</text></g></g><g transform="translate(-190,-94) scale(1,1)"><path fill="none" stroke="#000000" d="M 552 706 L 552 824" stroke-miterlimit="10"/></g><g transform="translate(-190,-94) scale(1,1)"><path fill="#000000" stroke="none" d="M 547.790482243984 813.8373251423759 L 552 824 L 556.209517756016 813.8373251423759"/></g><g transform="translate(-190,-94) scale(1,1)"><path fill="none" stroke="#000000" d="M 547.790482243984 813.8373251423759 L 552 824 L 556.209517756016 813.8373251423759 L 547.790482243984 813.8373251423759" stroke-miterlimit="10"/></g><g transform="translate(-190,-94) scale(1,1)"><rect fill="#ffffff" stroke="none" x="392" y="928" width="73.18994140625" height="45"/></g><g transform="translate(-190,-94) scale(1,1)"><path fill="none" stroke="#000000" d="M 392 928 L 465.18994140625 928 L 465.18994140625 973 L 392 973 L 392 928 Z Z" stroke-miterlimit="10"/></g><g transform="translate(-190,-94) scale(1,1)"><g><path fill="none" stroke="none"/><text fill="#000000" stroke="none" font-family="Arial" font-size="13px" font-style="normal" font-weight="normal" text-decoration="none" x="415.944091796875" y="950.5">data</text><text fill="#000000" stroke="none" font-family="Arial" font-size="13px" font-style="normal" font-weight="normal" text-decoration="none" x="412.694091796875" y="963.5">event</text></g></g><g transform="translate(-190,-94) scale(1,1)"><rect fill="#ffffff" stroke="none" x="648" y="824" width="73.18994140625" height="45"/></g><g transform="translate(-190,-94) scale(1,1)"><path fill="none" stroke="#000000" d="M 648 824 L 721.18994140625 824 L 721.18994140625 869 L 648 869 L 648 824 Z Z" stroke-miterlimit="10"/></g><g transform="translate(-190,-94) scale(1,1)"><g><path fill="none" stroke="none"/><text fill="#000000" stroke="none" font-family="Arial" font-size="13px" font-style="normal" font-weight="normal" text-decoration="none" x="669.4208984375" y="846.5">close</text><text fill="#000000" stroke="none" font-family="Arial" font-size="13px" font-style="normal" font-weight="normal" text-decoration="none" x="668.694091796875" y="859.5">event</text></g></g><g transform="translate(-190,-94) scale(1,1)"><rect fill="#ffffff" stroke="none" x="324" y="832" width="73.18994140625" height="32"/></g><g transform="translate(-190,-94) scale(1,1)"><path fill="none" stroke="#000000" d="M 324 832 L 397.18994140625 832 L 397.18994140625 864 L 324 864 L 324 832 Z Z" stroke-miterlimit="10"/></g><g transform="translate(-190,-94) scale(1,1)"><g><path fill="none" stroke="none"/><text fill="#000000" stroke="none" font-family="Arial" font-size="13px" font-style="normal" font-weight="normal" text-decoration="none" x="334.944091796875" y="854.5">err event</text></g></g><g transform="translate(-190,-94) scale(1,1)"><path fill="none" stroke="#000000" d="M 552 869 L 552 944 M 552 944 A 8 8 0 0 1 544 952 L 465 952" stroke-miterlimit="10"/></g><g transform="translate(-190,-94) scale(1,1)"><path fill="#000000" stroke="none" d="M 475.16267485762415 947.790482243984 L 465 952 L 475.16267485762415 956.209517756016"/></g><g transform="translate(-190,-94) scale(1,1)"><path fill="none" stroke="#000000" d="M 475.16267485762415 947.790482243984 L 465 952 L 475.16267485762415 956.209517756016 L 475.16267485762415 947.790482243984" stroke-miterlimit="10"/></g><g transform="translate(-190,-94) scale(1,1)"><path fill="none" stroke="#000000" d="M 585 848 L 648 848" stroke-miterlimit="10"/></g><g transform="translate(-190,-94) scale(1,1)"><path fill="#000000" stroke="none" d="M 637.8373251423759 852.209517756016 L 648 848 L 637.8373251423758 843.790482243984"/></g><g transform="translate(-190,-94) scale(1,1)"><path fill="none" stroke="#000000" d="M 637.8373251423759 852.209517756016 L 648 848 L 637.8373251423758 843.790482243984 L 637.8373251423759 852.209517756016" stroke-miterlimit="10"/></g><g transform="translate(-190,-94) scale(1,1)"><path fill="none" stroke="#000000" d="M 512 848 L 397 848" stroke-miterlimit="10"/></g><g transform="translate(-190,-94) scale(1,1)"><path fill="#000000" stroke="none" d="M 407.16267485762415 843.790482243984 L 397 848 L 407.16267485762415 852.209517756016"/></g><g transform="translate(-190,-94) scale(1,1)"><path fill="none" stroke="#000000" d="M 407.16267485762415 843.790482243984 L 397 848 L 407.16267485762415 852.209517756016 L 407.16267485762415 843.790482243984" stroke-miterlimit="10"/></g><g transform="translate(-190,-94) scale(1,1)"><rect fill="#ffffff" stroke="none" x="312" y="1024" width="73.18994140625" height="45"/></g><g transform="translate(-190,-94) scale(1,1)"><path fill="none" stroke="#000000" d="M 312 1024 L 385.18994140625 1024 L 385.18994140625 1069 L 312 1069 L 312 1024 Z Z" stroke-miterlimit="10"/></g><g transform="translate(-190,-94) scale(1,1)"><g><path fill="none" stroke="none"/><text fill="#000000" stroke="none" font-family="Arial" font-size="13px" font-style="normal" font-weight="normal" text-decoration="none" x="335.591796875" y="1046.5">Calc</text><text fill="#000000" stroke="none" font-family="Arial" font-size="13px" font-style="normal" font-weight="normal" text-decoration="none" x="334.509521484375" y="1059.5">COP</text></g></g><g transform="translate(-190,-94) scale(1,1)"><rect fill="#ffffff" stroke="none" x="216" y="1104" width="73.18994140625" height="45"/></g><g transform="translate(-190,-94) scale(1,1)"><path fill="none" stroke="#000000" d="M 216 1104 L 289.18994140625 1104 L 289.18994140625 1149 L 216 1149 L 216 1104 Z Z" stroke-miterlimit="10"/></g><g transform="translate(-190,-94) scale(1,1)"><g><path fill="none" stroke="none"/><text fill="#000000" stroke="none" font-family="Arial" font-size="13px" font-style="normal" font-weight="normal" text-decoration="none" x="230.555908203125" y="1126.5">Canvas</text><text fill="#000000" stroke="none" font-family="Arial" font-size="13px" font-style="normal" font-weight="normal" text-decoration="none" x="232.714111328125" y="1139.5">update</text></g></g><g transform="translate(-190,-94) scale(1,1)"><path fill="none" stroke="#000000" d="M 324 848 L 304 848 M 304 848 A 8 8 0 0 1 296 840 L 296 695" stroke-miterlimit="10"/></g><g transform="translate(-190,-94) scale(1,1)"><path fill="#000000" stroke="none" d="M 300.209517756016 705.1626748576241 L 296 695 L 291.790482243984 705.1626748576241"/></g><g transform="translate(-190,-94) scale(1,1)"><path fill="none" stroke="#000000" d="M 300.209517756016 705.1626748576241 L 296 695 L 291.790482243984 705.1626748576241 L 300.209517756016 705.1626748576241" stroke-miterlimit="10"/></g><g transform="translate(-190,-94) scale(1,1)"><path fill="none" stroke="#000000" d="M 680 824 L 680 256 M 680 256 A 8 8 0 0 0 672 248 L 484 248" stroke-miterlimit="10"/></g><g transform="translate(-190,-94) scale(1,1)"><path fill="#000000" stroke="none" d="M 494.16267485762415 243.790482243984 L 484 248 L 494.16267485762415 252.209517756016"/></g><g transform="translate(-190,-94) scale(1,1)"><path fill="none" stroke="#000000" d="M 494.16267485762415 243.790482243984 L 484 248 L 494.16267485762415 252.209517756016 L 494.16267485762415 243.790482243984" stroke-miterlimit="10"/></g><g transform="translate(-190,-94) scale(1,1)"><path fill="none" stroke="#000000" d="M 424 973 L 424 1040 M 424 1040 A 8 8 0 0 1 416 1048 L 385 1048" stroke-miterlimit="10"/></g><g transform="translate(-190,-94) scale(1,1)"><path fill="#000000" stroke="none" d="M 395.16267485762415 1043.7904822439841 L 385 1048 L 395.16267485762415 1052.2095177560159"/></g><g transform="translate(-190,-94) scale(1,1)"><path fill="none" stroke="#000000" d="M 395.16267485762415 1043.7904822439841 L 385 1048 L 395.16267485762415 1052.2095177560159 L 395.16267485762415 1043.7904822439841" stroke-miterlimit="10"/></g><g transform="translate(-190,-94) scale(1,1)"><path fill="none" stroke="#000000" d="M 344 1069 L 344 1120 M 344 1120 A 8 8 0 0 1 336 1128 L 289 1128" stroke-miterlimit="10"/></g><g transform="translate(-190,-94) scale(1,1)"><path fill="#000000" stroke="none" d="M 299.16267485762415 1123.7904822439841 L 289 1128 L 299.16267485762415 1132.2095177560159"/></g><g transform="translate(-190,-94) scale(1,1)"><path fill="none" stroke="#000000" d="M 299.16267485762415 1123.7904822439841 L 289 1128 L 299.16267485762415 1132.2095177560159 L 299.16267485762415 1123.7904822439841" stroke-miterlimit="10"/></g><g transform="translate(-190,-94) scale(1,1)"><path fill="none" stroke="#000000" d="M 256 1104 L 256 960 M 256 960 A 8 8 0 0 1 264 952 L 392 952" stroke-miterlimit="10"/></g><g transform="translate(-190,-94) scale(1,1)"><path fill="#000000" stroke="none" d="M 381.83732514237585 956.209517756016 L 392 952 L 381.83732514237585 947.790482243984"/></g><g transform="translate(-190,-94) scale(1,1)"><path fill="none" stroke="#000000" d="M 381.83732514237585 956.209517756016 L 392 952 L 381.83732514237585 947.790482243984 L 381.83732514237585 956.209517756016" stroke-miterlimit="10"/></g><g transform="translate(-190,-94) scale(1,1)"><path fill="#adc8ff" stroke="#000000" d="M 496 424 L 509 408 L 564.8798828125 408 Q 577.8798828125 408 577.8798828125 424 Q 577.8798828125 440 564.8798828125 440 L 509 440 L 496 424 Z" stroke-miterlimit="10"/></g><g transform="translate(-190,-94) scale(1,1)"><g><path fill="none" stroke="none"/><text fill="#000000" stroke="none" font-family="Arial" font-size="13px" font-style="normal" font-weight="normal" text-decoration="none" x="505.5" y="430.5">connecting</text></g></g><g transform="translate(-190,-94) scale(1,1)"><path fill="#a3ffa3" stroke="#000000" d="M 560 760 L 573 744 L 625.99169921875 744 Q 638.99169921875 744 638.99169921875 760 Q 638.99169921875 776 625.99169921875 776 L 573 776 L 560 760 Z" stroke-miterlimit="10"/></g><g transform="translate(-190,-94) scale(1,1)"><g><path fill="none" stroke="none"/><text fill="#000000" stroke="none" font-family="Arial" font-size="13px" font-style="normal" font-weight="normal" text-decoration="none" x="569.5" y="766.5">connected</text></g></g><g transform="translate(-190,-94) scale(1,1)"><path fill="#ffadad" stroke="#000000" d="M 344 680 L 360 664 L 425.05078125 664 Q 441.05078125 664 441.05078125 680 Q 441.05078125 696 425.05078125 696 L 360 696 L 344 680 Z" stroke-miterlimit="10"/></g><g transform="translate(-190,-94) scale(1,1)"><g><path fill="none" stroke="none"/><text fill="#000000" stroke="none" font-family="Arial" font-size="13px" font-style="normal" font-weight="normal" text-decoration="none" x="378.8017578125" y="686.5">ERR</text></g></g><g transform="translate(-190,-94) scale(1,1)"><path fill="#ffeaad" stroke="#000000" d="M 680 544 L 696 528 L 759.60986328125 528 Q 775.60986328125 528 775.60986328125 544 Q 775.60986328125 560 759.60986328125 560 L 696 560 L 680 544 Z" stroke-miterlimit="10"/></g><g transform="translate(-190,-94) scale(1,1)"><g><path fill="none" stroke="none"/><text fill="#000000" stroke="none" font-family="Arial" font-size="13px" font-style="normal" font-weight="normal" text-decoration="none" x="689.5" y="550.5">disconnected</text></g></g><g transform="translate(-190,-94) scale(1,1)"><path fill="#e2e2e2" stroke="#000000" d="M 496 120 L 507 104 L 553.8544921875 104 Q 564.8544921875 104 564.8544921875 120 Q 564.8544921875 136 553.8544921875 136 L 507 136 L 496 120 Z" stroke-miterlimit="10"/></g><g transform="translate(-190,-94) scale(1,1)"><g><path fill="none" stroke="none"/><text fill="#000000" stroke="none" font-family="Arial" font-size="13px" font-style="normal" font-weight="normal" text-decoration="none" x="509.832275390625" y="126.5">deactiv</text></g></g><g transform="translate(-190,-94) scale(1,1)"><rect fill="#ffffff" stroke="none" x="420" y="312" width="73.18994140625" height="32"/></g><g transform="translate(-190,-94) scale(1,1)"><path fill="none" stroke="#000000" d="M 420 312 L 493.18994140625 312 L 493.18994140625 344 L 420 344 L 420 312 Z Z" stroke-miterlimit="10"/></g><g transform="translate(-190,-94) scale(1,1)"><g><path fill="none" stroke="none"/><text fill="#000000" stroke="none" font-family="Arial" font-size="13px" font-style="normal" font-weight="normal" text-decoration="none" x="439.614990234375" y="334.5">Reset</text></g></g><g transform="translate(-190,-94) scale(1,1)"><path fill="none" stroke="#000000" d="M 456 269 L 456 312" stroke-miterlimit="10"/></g><g transform="translate(-190,-94) scale(1,1)"><path fill="#000000" stroke="none" d="M 451.790482243984 301.83732514237585 L 456 312 L 460.209517756016 301.83732514237585"/></g><g transform="translate(-190,-94) scale(1,1)"><path fill="none" stroke="#000000" d="M 451.790482243984 301.83732514237585 L 456 312 L 460.209517756016 301.83732514237585 L 451.790482243984 301.83732514237585" stroke-miterlimit="10"/></g><g transform="translate(-190,-94) scale(1,1)"><path fill="none" stroke="#000000" d="M 456 344 L 456 400" stroke-miterlimit="10"/></g><g transform="translate(-190,-94) scale(1,1)"><path fill="#000000" stroke="none" d="M 451.790482243984 389.83732514237585 L 456 400 L 460.209517756016 389.83732514237585"/></g><g transform="translate(-190,-94) scale(1,1)"><path fill="none" stroke="#000000" d="M 451.790482243984 389.83732514237585 L 456 400 L 460.209517756016 389.83732514237585 L 451.790482243984 389.83732514237585" stroke-miterlimit="10"/></g><g transform="translate(-190,-94) scale(1,1)"><path fill="none" stroke="#000000" d="M 254 680 L 240 680 M 240 680 A 8 8 0 0 1 232 672 L 232 256 M 232 256 A 8 8 0 0 1 240 248 L 429 248" stroke-miterlimit="10"/></g><g transform="translate(-190,-94) scale(1,1)"><path fill="#000000" stroke="none" d="M 418.83732514237585 252.209517756016 L 429 248 L 418.83732514237585 243.790482243984"/></g><g transform="translate(-190,-94) scale(1,1)"><path fill="none" stroke="#000000" d="M 418.83732514237585 252.209517756016 L 429 248 L 418.83732514237585 243.790482243984 L 418.83732514237585 252.209517756016" stroke-miterlimit="10"/></g></g></svg>