<svg version="1.1" xmlns="http://www.w3.org/2000/svg" xmlns:xlink="http://www.w3.org/1999/xlink" width="579.06982421875" height="1145"><defs/><g><g transform="translate(-174,-102) scale(1,1)"><rect fill="#ffffff" stroke="none" x="512" y="112" width="73.18994140625" height="32"/></g><g transform="translate(-174,-102) scale(1,1)"><path fill="none" stroke="#000000" d="M 512 112 L 585.18994140625 112 L 585.18994140625 144 L 512 144 L 512 112 Z Z" stroke-miterlimit="10"/></g><g transform="translate(-174,-102) scale(1,1)"><g><path fill="none" stroke="none"/><text fill="#000000" stroke="none" font-family="Arial" font-size="13px" font-style="normal" font-weight="normal" text-decoration="none" x="534.135009765625" y="134.5">Load</text></g></g><g transform="translate(-174,-102) scale(1,1)"><path fill="#ffffff" stroke="none" d="M 392 231 L 462.29541015625 224 L 462.29541015625 269 L 392 269 L 392 231"/></g><g transform="translate(-174,-102) scale(1,1)"><path fill="none" stroke="#000000" d="M 392 231 L 462.29541015625 224 L 462.29541015625 269 L 392 269 L 392 231 L 392 231" stroke-miterlimit="10"/></g><g transform="translate(-174,-102) scale(1,1)"><g><path fill="none" stroke="none"/><text fill="#000000" stroke="none" font-family="Arial" font-size="13px" font-style="normal" font-weight="normal" text-decoration="none" x="401.5" y="250">Carregar</text><text fill="#000000" stroke="none" font-family="Arial" font-size="13px" font-style="normal" font-weight="normal" text-decoration="none" x="402.5791015625" y="263">Medição</text></g></g><g transform="translate(-174,-102) scale(1,1)"><path fill="#ffffff" stroke="none" d="M 648 237 L 703.1435546875 232 L 703.1435546875 264 L 648 264 L 648 237"/></g><g transform="translate(-174,-102) scale(1,1)"><path fill="none" stroke="#000000" d="M 648 237 L 703.1435546875 232 L 703.1435546875 264 L 648 264 L 648 237 L 648 237" stroke-miterlimit="10"/></g><g transform="translate(-174,-102) scale(1,1)"><g><path fill="none" stroke="none"/><text fill="#000000" stroke="none" font-family="Arial" font-size="13px" font-style="normal" font-weight="normal" text-decoration="none" x="659.318603515625" y="257">Medir</text></g></g><g transform="translate(-174,-102) scale(1,1)"><path fill="#ffffff" stroke="none" d="M 536 214.5 C 536 206.4918704 542.4918704 200 550.5 200 C 558.5081296 200 565 206.4918704 565 214.5 C 565 222.5081296 558.5081296 229 550.5 229 C 542.4918704 229 536 222.5081296 536 214.5 Z"/></g><g transform="translate(-174,-102) scale(1,1)"><path fill="none" stroke="#000000" d="M 536 214.5 C 536 206.4918704 542.4918704 200 550.5 200 C 558.5081296 200 565 206.4918704 565 214.5 C 565 222.5081296 558.5081296 229 550.5 229 C 542.4918704 229 536 222.5081296 536 214.5 Z" stroke-miterlimit="10"/></g><g transform="translate(-174,-102) scale(1,1)"><path fill="none" stroke="#000000" d="M 550 200 L 550 229" stroke-miterlimit="10"/></g><g transform="translate(-174,-102) scale(1,1)"><path fill="none" stroke="#000000" d="M 536 214 L 565 214" stroke-miterlimit="10"/></g><g transform="translate(-174,-102) scale(1,1)"><path fill="none" stroke="#000000" d="M 548 144 L 548 200" stroke-miterlimit="10"/></g><g transform="translate(-174,-102) scale(1,1)"><path fill="#000000" stroke="none" d="M 543.790482243984 189.83732514237585 L 548 200 L 552.209517756016 189.83732514237585"/></g><g transform="translate(-174,-102) scale(1,1)"><path fill="none" stroke="#000000" d="M 543.790482243984 189.83732514237585 L 548 200 L 552.209517756016 189.83732514237585 L 543.790482243984 189.83732514237585" stroke-miterlimit="10"/></g><g transform="translate(-174,-102) scale(1,1)"><path fill="none" stroke="#000000" d="M 536 229 L 536 240 M 536 240 A 8 8 0 0 1 528 248 L 462 248" stroke-miterlimit="10"/></g><g transform="translate(-174,-102) scale(1,1)"><path fill="#000000" stroke="none" d="M 472.16267485762415 243.790482243984 L 462 248 L 472.16267485762415 252.209517756016"/></g><g transform="translate(-174,-102) scale(1,1)"><path fill="none" stroke="#000000" d="M 472.16267485762415 243.790482243984 L 462 248 L 472.16267485762415 252.209517756016 L 472.16267485762415 243.790482243984" stroke-miterlimit="10"/></g><g transform="translate(-174,-102) scale(1,1)"><path fill="none" stroke="#000000" d="M 565 229 L 565 240 M 565 240 A 8 8 0 0 0 573 248 L 648 248" stroke-miterlimit="10"/></g><g transform="translate(-174,-102) scale(1,1)"><path fill="#000000" stroke="none" d="M 637.8373251423759 252.209517756016 L 648 248 L 637.8373251423758 243.790482243984"/></g><g transform="translate(-174,-102) scale(1,1)"><path fill="none" stroke="#000000" d="M 637.8373251423759 252.209517756016 L 648 248 L 637.8373251423758 243.790482243984 L 637.8373251423759 252.209517756016" stroke-miterlimit="10"/></g><g transform="translate(-174,-102) scale(1,1)"><rect fill="#ffffff" stroke="none" x="639" y="344" width="73.18994140625" height="32"/></g><g transform="translate(-174,-102) scale(1,1)"><path fill="none" stroke="#000000" d="M 639 344 L 712.18994140625 344 L 712.18994140625 376 L 639 376 L 639 344 Z Z" stroke-miterlimit="10"/></g><g transform="translate(-174,-102) scale(1,1)"><g><path fill="none" stroke="none"/><text fill="#000000" stroke="none" font-family="Arial" font-size="13px" font-style="normal" font-weight="normal" text-decoration="none" x="661.135009765625" y="366.5">Load</text></g></g><g transform="translate(-174,-102) scale(1,1)"><rect fill="#ffffff" stroke="none" x="607" y="456" width="136.06982421875" height="32"/></g><g transform="translate(-174,-102) scale(1,1)"><path fill="none" stroke="#000000" d="M 607 456 L 743.06982421875 456 L 743.06982421875 488 L 607 488 L 607 456 Z Z" stroke-miterlimit="10"/></g><g transform="translate(-174,-102) scale(1,1)"><path fill="none" stroke="#000000" d="M 612 456 L 612 488" stroke-miterlimit="10"/></g><g transform="translate(-174,-102) scale(1,1)"><path fill="none" stroke="#000000" d="M 738.06982421875 456 L 738.06982421875 488" stroke-miterlimit="10"/></g><g transform="translate(-174,-102) scale(1,1)"><g><path fill="none" stroke="none"/><text fill="#000000" stroke="none" font-family="Arial" font-size="13px" font-style="normal" font-weight="normal" text-decoration="none" x="639.601318359375" y="478.5">Handler USB</text></g></g><g transform="translate(-174,-102) scale(1,1)"><rect fill="#ffffff" stroke="none" x="639" y="930" width="73.18994140625" height="45"/></g><g transform="translate(-174,-102) scale(1,1)"><path fill="none" stroke="#000000" d="M 639 930 L 712.18994140625 930 L 712.18994140625 975 L 639 975 L 639 930 Z Z" stroke-miterlimit="10"/></g><g transform="translate(-174,-102) scale(1,1)"><g><path fill="none" stroke="none"/><text fill="#000000" stroke="none" font-family="Arial" font-size="13px" font-style="normal" font-weight="normal" text-decoration="none" x="662.944091796875" y="952.5">data</text><text fill="#000000" stroke="none" font-family="Arial" font-size="13px" font-style="normal" font-weight="normal" text-decoration="none" x="658.9736328125" y="965.5">Event</text></g></g><g transform="translate(-174,-102) scale(1,1)"><rect fill="#ffffff" stroke="none" x="639" y="568" width="73.18994140625" height="45"/></g><g transform="translate(-174,-102) scale(1,1)"><path fill="none" stroke="#000000" d="M 639 568 L 712.18994140625 568 L 712.18994140625 613 L 639 613 L 639 568 Z Z" stroke-miterlimit="10"/></g><g transform="translate(-174,-102) scale(1,1)"><g><path fill="none" stroke="none"/><text fill="#000000" stroke="none" font-family="Arial" font-size="13px" font-style="normal" font-weight="normal" text-decoration="none" x="652.8291015625" y="590.5">Prep da</text><text fill="#000000" stroke="none" font-family="Arial" font-size="13px" font-style="normal" font-weight="normal" text-decoration="none" x="651.0263671875" y="603.5">medição</text></g></g><g transform="translate(-174,-102) scale(1,1)"><path fill="#ffffff" stroke="none" d="M 646 700 L 705.4599609375 693 L 705.4599609375 738 L 646 738 L 646 700"/></g><g transform="translate(-174,-102) scale(1,1)"><path fill="none" stroke="#000000" d="M 646 700 L 705.4599609375 693 L 705.4599609375 738 L 646 738 L 646 700 L 646 700" stroke-miterlimit="10"/></g><g transform="translate(-174,-102) scale(1,1)"><g><path fill="none" stroke="none"/><text fill="#000000" stroke="none" font-family="Arial" font-size="13px" font-style="normal" font-weight="normal" text-decoration="none" x="665.9736328125" y="719">Set</text><text fill="#000000" stroke="none" font-family="Arial" font-size="13px" font-style="normal" font-weight="normal" text-decoration="none" x="655.5" y="732">Tempo</text></g></g><g transform="translate(-174,-102) scale(1,1)"><path fill="#ffffff" stroke="none" d="M 648 823 L 703.1435546875 818 L 703.1435546875 850 L 648 850 L 648 823"/></g><g transform="translate(-174,-102) scale(1,1)"><path fill="none" stroke="#000000" d="M 648 823 L 703.1435546875 818 L 703.1435546875 850 L 648 850 L 648 823 L 648 823" stroke-miterlimit="10"/></g><g transform="translate(-174,-102) scale(1,1)"><g><path fill="none" stroke="none"/><text fill="#000000" stroke="none" font-family="Arial" font-size="13px" font-style="normal" font-weight="normal" text-decoration="none" x="661.844970703125" y="843">Start</text></g></g><g transform="translate(-174,-102) scale(1,1)"><rect fill="#ffffff" stroke="none" x="637" y="1055" width="76.0908203125" height="32"/></g><g transform="translate(-174,-102) scale(1,1)"><path fill="none" stroke="#000000" d="M 637 1055 L 713.0908203125 1055 L 713.0908203125 1087 L 637 1087 L 637 1055 Z Z" stroke-miterlimit="10"/></g><g transform="translate(-174,-102) scale(1,1)"><g><path fill="none" stroke="none"/><text fill="#000000" stroke="none" font-family="Arial" font-size="13px" font-style="normal" font-weight="normal" text-decoration="none" x="646.5" y="1077.5">DataPush</text></g></g><g transform="translate(-174,-102) scale(1,1)"><path fill="#ffffff" stroke="none" d="M 448 1006.5 L 504.58447265625 992 L 561.1689453125 1006.5 L 504.58447265625 1021 L 448 1006.5"/></g><g transform="translate(-174,-102) scale(1,1)"><path fill="none" stroke="#000000" d="M 448 1006.5 L 504.58447265625 992 L 561.1689453125 1006.5 L 504.58447265625 1021 L 448 1006.5 L 448 1006.5" stroke-miterlimit="10"/></g><g transform="translate(-174,-102) scale(1,1)"><g><path fill="none" stroke="none"/><text fill="#000000" stroke="none" font-family="Arial" font-size="13px" font-style="normal" font-weight="normal" text-decoration="none" x="481.831298828125" y="1013">TimeUp</text></g></g><g transform="translate(-174,-102) scale(1,1)"><rect fill="#ffffff" stroke="none" x="432" y="1080" width="133.1689453125" height="32"/></g><g transform="translate(-174,-102) scale(1,1)"><path fill="none" stroke="#000000" d="M 432 1080 L 565.1689453125 1080 L 565.1689453125 1112 L 432 1112 L 432 1080 Z Z" stroke-miterlimit="10"/></g><g transform="translate(-174,-102) scale(1,1)"><g><path fill="none" stroke="none"/><text fill="#000000" stroke="none" font-family="Arial" font-size="13px" font-style="normal" font-weight="normal" text-decoration="none" x="441.5" y="1102.5">UpdateProgressBar</text></g></g><g transform="translate(-174,-102) scale(1,1)"><path fill="none" stroke="#000000" d="M 680 975 L 680 1055" stroke-miterlimit="10"/></g><g transform="translate(-174,-102) scale(1,1)"><path fill="#000000" stroke="none" d="M 675.790482243984 1044.837325142376 L 680 1055 L 684.209517756016 1044.837325142376"/></g><g transform="translate(-174,-102) scale(1,1)"><path fill="none" stroke="#000000" d="M 675.790482243984 1044.837325142376 L 680 1055 L 684.209517756016 1044.837325142376 L 675.790482243984 1044.837325142376" stroke-miterlimit="10"/></g><g transform="translate(-174,-102) scale(1,1)"><path fill="none" stroke="#000000" d="M 688 1087 L 688 1152 M 688 1152 A 8 8 0 0 1 680 1160 L 512 1160 M 512 1160 A 8 8 0 0 1 504 1152 L 504 1112" stroke-miterlimit="10"/></g><g transform="translate(-174,-102) scale(1,1)"><path fill="#000000" stroke="none" d="M 508.209517756016 1122.162674857624 L 504 1112 L 499.790482243984 1122.162674857624"/></g><g transform="translate(-174,-102) scale(1,1)"><path fill="none" stroke="#000000" d="M 508.209517756016 1122.162674857624 L 504 1112 L 499.790482243984 1122.162674857624 L 508.209517756016 1122.162674857624" stroke-miterlimit="10"/></g><g transform="translate(-174,-102) scale(1,1)"><path fill="none" stroke="#000000" d="M 504 1080 L 504 1021" stroke-miterlimit="10"/></g><g transform="translate(-174,-102) scale(1,1)"><path fill="#000000" stroke="none" d="M 508.209517756016 1031.162674857624 L 504 1021 L 499.790482243984 1031.162674857624"/></g><g transform="translate(-174,-102) scale(1,1)"><path fill="none" stroke="#000000" d="M 508.209517756016 1031.162674857624 L 504 1021 L 499.790482243984 1031.162674857624 L 508.209517756016 1031.162674857624" stroke-miterlimit="10"/></g><g transform="translate(-174,-102) scale(1,1)"><path fill="none" stroke="#000000" d="M 504 992 L 504 968 M 504 968 A 8 8 0 0 1 512 960 L 639 960" stroke-miterlimit="10"/></g><g transform="translate(-174,-102) scale(1,1)"><path fill="#000000" stroke="none" d="M 628.8373251423759 964.209517756016 L 639 960 L 628.8373251423758 955.790482243984"/></g><g transform="translate(-174,-102) scale(1,1)"><path fill="none" stroke="#000000" d="M 628.8373251423759 964.209517756016 L 639 960 L 628.8373251423758 955.790482243984 L 628.8373251423759 964.209517756016" stroke-miterlimit="10"/></g><g transform="translate(-174,-102) scale(1,1)"><g><path fill="none" stroke="none"/><text fill="#000000" stroke="none" font-family="Arial" font-size="13px" font-style="normal" font-weight="normal" text-decoration="none" x="500" y="952">N</text></g></g><g transform="translate(-174,-102) scale(1,1)"><rect fill="#ffffff" stroke="none" x="216" y="984" width="112.2216796875" height="32"/></g><g transform="translate(-174,-102) scale(1,1)"><path fill="none" stroke="#000000" d="M 216 984 L 328.2216796875 984 L 328.2216796875 1016 L 216 1016 L 216 984 Z Z" stroke-miterlimit="10"/></g><g transform="translate(-174,-102) scale(1,1)"><g><path fill="none" stroke="none"/><text fill="#000000" stroke="none" font-family="Arial" font-size="13px" font-style="normal" font-weight="normal" text-decoration="none" x="225.5" y="1006.5">GenerateReport</text></g></g><g transform="translate(-174,-102) scale(1,1)"><path fill="none" stroke="#000000" d="M 448 1008 L 328 1008" stroke-miterlimit="10"/></g><g transform="translate(-174,-102) scale(1,1)"><path fill="#000000" stroke="none" d="M 338.16267485762415 1003.790482243984 L 328 1008 L 338.16267485762415 1012.209517756016"/></g><g transform="translate(-174,-102) scale(1,1)"><path fill="none" stroke="#000000" d="M 338.16267485762415 1003.790482243984 L 328 1008 L 338.16267485762415 1012.209517756016 L 338.16267485762415 1003.790482243984" stroke-miterlimit="10"/></g><g transform="translate(-174,-102) scale(1,1)"><g><path fill="none" stroke="none"/><text fill="#000000" stroke="none" font-family="Arial" font-size="13px" font-style="normal" font-weight="normal" text-decoration="none" x="383" y="1030">S</text></g></g><g transform="translate(-174,-102) scale(1,1)"><rect fill="#ffffff" stroke="none" x="232" y="1080" width="73.18994140625" height="45"/></g><g transform="translate(-174,-102) scale(1,1)"><path fill="none" stroke="#000000" d="M 232 1080 L 305.18994140625 1080 L 305.18994140625 1125 L 232 1125 L 232 1080 Z Z" stroke-miterlimit="10"/></g><g transform="translate(-174,-102) scale(1,1)"><g><path fill="none" stroke="none"/><text fill="#000000" stroke="none" font-family="Arial" font-size="13px" font-style="normal" font-weight="normal" text-decoration="none" x="248.364990234375" y="1102.5">Montar</text><text fill="#000000" stroke="none" font-family="Arial" font-size="13px" font-style="normal" font-weight="normal" text-decoration="none" x="249.08544921875" y="1115.5">Report</text></g></g><g transform="translate(-174,-102) scale(1,1)"><rect fill="#ffffff" stroke="none" x="232" y="1192" width="73.18994140625" height="45"/></g><g transform="translate(-174,-102) scale(1,1)"><path fill="none" stroke="#000000" d="M 232 1192 L 305.18994140625 1192 L 305.18994140625 1237 L 232 1237 L 232 1192 Z Z" stroke-miterlimit="10"/></g><g transform="translate(-174,-102) scale(1,1)"><g><path fill="none" stroke="none"/><text fill="#000000" stroke="none" font-family="Arial" font-size="13px" font-style="normal" font-weight="normal" text-decoration="none" x="249.08544921875" y="1214.5">Report</text><text fill="#000000" stroke="none" font-family="Arial" font-size="13px" font-style="normal" font-weight="normal" text-decoration="none" x="248.36181640625" y="1227.5">display</text></g></g><g transform="translate(-174,-102) scale(1,1)"><path fill="none" stroke="#000000" d="M 672 264 L 672 344" stroke-miterlimit="10"/></g><g transform="translate(-174,-102) scale(1,1)"><path fill="#000000" stroke="none" d="M 667.790482243984 333.83732514237585 L 672 344 L 676.209517756016 333.83732514237585"/></g><g transform="translate(-174,-102) scale(1,1)"><path fill="none" stroke="#000000" d="M 667.790482243984 333.83732514237585 L 672 344 L 676.209517756016 333.83732514237585 L 667.790482243984 333.83732514237585" stroke-miterlimit="10"/></g><g transform="translate(-174,-102) scale(1,1)"><path fill="none" stroke="#000000" d="M 672 376 L 672 456" stroke-miterlimit="10"/></g><g transform="translate(-174,-102) scale(1,1)"><path fill="#000000" stroke="none" d="M 667.790482243984 445.83732514237585 L 672 456 L 676.209517756016 445.83732514237585"/></g><g transform="translate(-174,-102) scale(1,1)"><path fill="none" stroke="#000000" d="M 667.790482243984 445.83732514237585 L 672 456 L 676.209517756016 445.83732514237585 L 667.790482243984 445.83732514237585" stroke-miterlimit="10"/></g><g transform="translate(-174,-102) scale(1,1)"><path fill="none" stroke="#000000" d="M 672 488 L 672 568" stroke-miterlimit="10"/></g><g transform="translate(-174,-102) scale(1,1)"><path fill="#000000" stroke="none" d="M 667.790482243984 557.8373251423759 L 672 568 L 676.209517756016 557.8373251423759"/></g><g transform="translate(-174,-102) scale(1,1)"><path fill="none" stroke="#000000" d="M 667.790482243984 557.8373251423759 L 672 568 L 676.209517756016 557.8373251423759 L 667.790482243984 557.8373251423759" stroke-miterlimit="10"/></g><g transform="translate(-174,-102) scale(1,1)"><path fill="none" stroke="#000000" d="M 676 613 L 676 693" stroke-miterlimit="10"/></g><g transform="translate(-174,-102) scale(1,1)"><path fill="#000000" stroke="none" d="M 671.790482243984 682.8373251423759 L 676 693 L 680.209517756016 682.8373251423759"/></g><g transform="translate(-174,-102) scale(1,1)"><path fill="none" stroke="#000000" d="M 671.790482243984 682.8373251423759 L 676 693 L 680.209517756016 682.8373251423759 L 671.790482243984 682.8373251423759" stroke-miterlimit="10"/></g><g transform="translate(-174,-102) scale(1,1)"><path fill="none" stroke="#000000" d="M 678 738 L 678 818" stroke-miterlimit="10"/></g><g transform="translate(-174,-102) scale(1,1)"><path fill="#000000" stroke="none" d="M 673.790482243984 807.8373251423759 L 678 818 L 682.209517756016 807.8373251423759"/></g><g transform="translate(-174,-102) scale(1,1)"><path fill="none" stroke="#000000" d="M 673.790482243984 807.8373251423759 L 678 818 L 682.209517756016 807.8373251423759 L 673.790482243984 807.8373251423759" stroke-miterlimit="10"/></g><g transform="translate(-174,-102) scale(1,1)"><path fill="none" stroke="#000000" d="M 680 850 L 680 930" stroke-miterlimit="10"/></g><g transform="translate(-174,-102) scale(1,1)"><path fill="#000000" stroke="none" d="M 675.790482243984 919.8373251423759 L 680 930 L 684.209517756016 919.8373251423759"/></g><g transform="translate(-174,-102) scale(1,1)"><path fill="none" stroke="#000000" d="M 675.790482243984 919.8373251423759 L 680 930 L 684.209517756016 919.8373251423759 L 675.790482243984 919.8373251423759" stroke-miterlimit="10"/></g><g transform="translate(-174,-102) scale(1,1)"><path fill="none" stroke="#000000" d="M 270 1016 L 270 1080" stroke-miterlimit="10"/></g><g transform="translate(-174,-102) scale(1,1)"><path fill="#000000" stroke="none" d="M 265.790482243984 1069.837325142376 L 270 1080 L 274.209517756016 1069.837325142376"/></g><g transform="translate(-174,-102) scale(1,1)"><path fill="none" stroke="#000000" d="M 265.790482243984 1069.837325142376 L 270 1080 L 274.209517756016 1069.837325142376 L 265.790482243984 1069.837325142376" stroke-miterlimit="10"/></g><g transform="translate(-174,-102) scale(1,1)"><path fill="none" stroke="#000000" d="M 264 1125 L 264 1192" stroke-miterlimit="10"/></g><g transform="translate(-174,-102) scale(1,1)"><path fill="#000000" stroke="none" d="M 259.790482243984 1181.837325142376 L 264 1192 L 268.209517756016 1181.837325142376"/></g><g transform="translate(-174,-102) scale(1,1)"><path fill="none" stroke="#000000" d="M 259.790482243984 1181.837325142376 L 264 1192 L 268.209517756016 1181.837325142376 L 259.790482243984 1181.837325142376" stroke-miterlimit="10"/></g><g transform="translate(-174,-102) scale(1,1)"><path fill="#ffffff" stroke="none" d="M 288 416 L 379.26806640625 416 L 364.26806640625 487 L 303 487 L 288 416"/></g><g transform="translate(-174,-102) scale(1,1)"><path fill="none" stroke="#000000" d="M 288 416 L 379.26806640625 416 L 364.26806640625 487 L 303 487 L 288 416 L 288 416" stroke-miterlimit="10"/></g><g transform="translate(-174,-102) scale(1,1)"><g><path fill="none" stroke="none"/><text fill="#000000" stroke="none" font-family="Arial" font-size="13px" font-style="normal" font-weight="normal" text-decoration="none" x="314.12451171875" y="438.5">Report</text><text fill="#000000" stroke="none" font-family="Arial" font-size="13px" font-style="normal" font-weight="normal" text-decoration="none" x="319.18359375" y="451.5">a ser</text><text fill="#000000" stroke="none" font-family="Arial" font-size="13px" font-style="normal" font-weight="normal" text-decoration="none" x="304.364990234375" y="464.5">carregado</text><text fill="#000000" stroke="none" font-family="Arial" font-size="13px" font-style="normal" font-weight="normal" text-decoration="none" x="297.5" y="477.5">especificado</text></g></g><g transform="translate(-174,-102) scale(1,1)"><rect fill="#ffffff" stroke="none" x="272" y="632" width="86.93896484375" height="32"/></g><g transform="translate(-174,-102) scale(1,1)"><path fill="none" stroke="#000000" d="M 272 632 L 358.93896484375 632 L 358.93896484375 664 L 272 664 L 272 632 Z Z" stroke-miterlimit="10"/></g><g transform="translate(-174,-102) scale(1,1)"><g><path fill="none" stroke="none"/><text fill="#000000" stroke="none" font-family="Arial" font-size="13px" font-style="normal" font-weight="normal" text-decoration="none" x="281.5" y="654.5">LoadReport</text></g></g><g transform="translate(-174,-102) scale(1,1)"><path fill="none" stroke="#000000" d="M 272 648 L 192 648 M 192 648 A 8 8 0 0 0 184 656 L 184 1094 M 184 1094 A 8 8 0 0 0 192 1102 L 232 1102" stroke-miterlimit="10"/></g><g transform="translate(-174,-102) scale(1,1)"><path fill="#000000" stroke="none" d="M 221.83732514237585 1106.2095177560159 L 232 1102 L 221.83732514237585 1097.7904822439841"/></g><g transform="translate(-174,-102) scale(1,1)"><path fill="none" stroke="#000000" d="M 221.83732514237585 1106.2095177560159 L 232 1102 L 221.83732514237585 1097.7904822439841 L 221.83732514237585 1106.2095177560159" stroke-miterlimit="10"/></g><g transform="translate(-174,-102) scale(1,1)"><path fill="none" stroke="#000000" d="M 392 248 L 344 248 M 344 248 A 8 8 0 0 0 336 256 L 336 416" stroke-miterlimit="10"/></g><g transform="translate(-174,-102) scale(1,1)"><path fill="#000000" stroke="none" d="M 331.790482243984 405.83732514237585 L 336 416 L 340.209517756016 405.83732514237585"/></g><g transform="translate(-174,-102) scale(1,1)"><path fill="none" stroke="#000000" d="M 331.790482243984 405.83732514237585 L 336 416 L 340.209517756016 405.83732514237585 L 331.790482243984 405.83732514237585" stroke-miterlimit="10"/></g><g transform="translate(-174,-102) scale(1,1)"><path fill="none" stroke="#000000" d="M 330 487 L 330 632" stroke-miterlimit="10"/></g><g transform="translate(-174,-102) scale(1,1)"><path fill="#000000" stroke="none" d="M 325.790482243984 621.8373251423759 L 330 632 L 334.209517756016 621.8373251423759"/></g><g transform="translate(-174,-102) scale(1,1)"><path fill="none" stroke="#000000" d="M 325.790482243984 621.8373251423759 L 330 632 L 334.209517756016 621.8373251423759 L 325.790482243984 621.8373251423759" stroke-miterlimit="10"/></g></g></svg>